<svg width="351" height="64" viewBox="0 0 351 64" fill="none" xmlns="http://www.w3.org/2000/svg">
<path d="M5.5501 62C7.6691 61.5019 8.79567 58.1719 9.94933 56.959C14.3594 52.3226 19.9709 48.3118 27.2163 45.9465C45.3729 40.0191 63.9151 38.2687 83.6365 38.2687C88.0135 38.2687 101.015 39.5555 95.5144 33.4604C92.2415 29.8336 82.3901 28.6375 77.3126 27.2949C61.3508 23.074 45.3994 19.1913 29.086 15.7007C20.4926 13.8619 12.3781 13.2623 3.46046 13.1414C-1.06529 13.08 6.28882 10.024 7.19981 9.6515C23.256 3.0866 44.5182 2.46158 62.5202 2.09005C123.003 0.841761 181.183 12.9973 241.624 12.2495C270.822 11.8883 300.37 10.4337 329.169 6.85958C336.354 5.9679 343.655 4.06766 351 4.06766" stroke="#A32134" stroke-width="3"/>
</svg>
